<!DOCTYPE svg PUBLIC "-//W3C//DTD SVG 1.1//EN" "http://www.w3.org/Graphics/SVG/1.1/DTD/svg11.dtd">
<!-- Uploaded to: SVG Repo, www.svgrepo.com, Transformed by: SVG Repo Mixer Tools -->
<svg fill="#ffffff" height="800px" width="800px" version="1.1" id="Layer_1" xmlns="http://www.w3.org/2000/svg" xmlns:xlink="http://www.w3.org/1999/xlink" viewBox="0 0 472.641 472.641" xml:space="preserve" stroke="#ffffff">
<g id="SVGRepo_bgCarrier" stroke-width="0"/>
<g id="SVGRepo_tracerCarrier" stroke-linecap="round" stroke-linejoin="round"/>
<g id="SVGRepo_iconCarrier"> <g> <g> <path d="M469.773,71.803L400.85,2.88c-3.84-3.84-10.142-3.84-13.982,0l-68.923,68.923c-2.757,2.856-3.643,7.09-2.068,10.733 c1.477,3.643,5.12,6.105,9.058,6.105h29.538v374.154c0,5.414,4.431,9.846,9.846,9.846h59.077c5.415,0,9.846-4.432,9.846-9.846 V88.641h29.538c3.938,0,7.582-2.462,9.058-6.105C473.416,78.893,472.53,74.659,469.773,71.803z"/> </g> </g> <g> <g> <path d="M312.234,180.111l-68.923-68.923c-3.84-3.84-10.142-3.84-13.982,0l-68.923,68.923c-2.757,2.856-3.643,7.09-2.068,10.733 c1.477,3.643,5.12,6.105,9.058,6.105h29.539v265.846c0,5.414,4.431,9.846,9.846,9.846h59.077c5.415,0,9.846-4.432,9.846-9.846 V196.949h29.538c3.938,0,7.582-2.461,9.058-6.105C315.877,187.201,314.991,182.967,312.234,180.111z"/> </g> </g> <g> <g> <path d="M154.696,278.572l-68.923-68.923c-3.84-3.84-10.142-3.84-13.982,0L2.868,278.572c-2.757,2.856-3.643,7.09-2.068,10.733 c1.477,3.643,5.12,6.105,9.058,6.105h29.538v167.385c0,5.414,4.431,9.846,9.846,9.846h59.077c5.415,0,9.846-4.432,9.846-9.846 V295.41h29.539c3.938,0,7.582-2.462,9.058-6.105C158.339,285.663,157.453,281.429,154.696,278.572z"/> </g> </g> </g>
</svg>